<svg width="24" height="24" viewBox="0 0 24 24" fill="none" xmlns="http://www.w3.org/2000/svg">
<circle cx="12.5454" cy="12.5449" r="11.4545" fill="#FFD15C"/>
<path d="M12 23.9995C5.3724 23.9995 0 18.6271 0 11.9995C0 5.37191 5.3724 -0.000488281 12 -0.000488281C18.6276 -0.000488281 24 5.37191 24 11.9995C24 18.6271 18.6276 23.9995 12 23.9995ZM12 21.5995C14.5461 21.5995 16.9879 20.5881 18.7882 18.7877C20.5886 16.9874 21.6 14.5456 21.6 11.9995C21.6 9.45343 20.5886 7.01164 18.7882 5.21129C16.9879 3.41094 14.5461 2.39951 12 2.39951C9.45392 2.39951 7.01212 3.41094 5.21178 5.21129C3.41143 7.01164 2.4 9.45343 2.4 11.9995C2.4 14.5456 3.41143 16.9874 5.21178 18.7877C7.01212 20.5881 9.45392 21.5995 12 21.5995ZM10.8036 16.7995L5.712 11.7079L7.4088 10.0111L10.8036 13.4059L17.592 6.61751L19.2888 8.31431L10.8036 16.7995Z" fill="#150B33"/>
</svg>
