<svg width="34" height="34" viewBox="0 0 34 34" fill="none" xmlns="http://www.w3.org/2000/svg">
<circle cx="24.9937" cy="24.9937" r="7.81055" fill="#7CA1FF"/>
<path d="M0 32.3905C0.0599335 32.3447 0.126037 32.3059 0.178038 32.2531C2.10208 30.3308 4.02524 28.4076 5.94752 26.4836C5.99335 26.4377 6.03566 26.3875 6.08678 26.3329C5.31822 24.6168 6.00393 23.2859 7.28898 22.0776C6.82537 21.6545 6.3979 21.2632 5.9484 20.8525C8.29551 18.5062 10.5906 16.2111 12.8857 13.916C15.1746 11.6271 17.4645 9.33906 19.7666 7.03778C19.2739 6.5592 18.7927 6.09295 18.337 5.6505C18.8288 5.15781 19.2915 4.69509 19.7587 4.22708C20.6612 5.13489 21.5981 6.07797 22.5059 6.99107C23.9311 5.56589 25.3281 4.16891 26.7453 2.75254C26.3311 2.3427 25.8728 1.88791 25.4012 1.42166C25.8754 0.929851 26.3232 0.465366 26.7718 0C26.7938 0 26.8158 0 26.8379 0C26.9031 0.0731542 26.9657 0.149834 27.0353 0.219462C28.4288 1.61468 29.8222 3.0099 31.2192 4.40247C32.0918 5.27327 32.9696 6.13878 33.8457 7.00694V7.07304C33.3812 7.52166 32.9167 7.97028 32.4284 8.44181C31.9613 7.9694 31.5074 7.51108 31.0896 7.0889C29.6697 8.5088 28.2728 9.90666 26.8546 11.3248C27.7721 12.2361 28.7161 13.173 29.6371 14.0888C29.163 14.5612 28.6976 15.0239 28.2058 15.5131C27.7624 15.0521 27.2971 14.5691 26.8696 14.124C26.2562 14.7366 25.6621 15.3306 25.0787 15.9124C25.3334 15.9362 25.6251 15.9608 25.916 15.9926C29.4944 16.383 32.558 18.9857 33.5081 22.4583C33.6518 22.9845 33.7346 23.5266 33.8457 24.0616V25.7141C33.8237 25.797 33.7937 25.8789 33.7805 25.9636C33.2155 29.6389 31.1822 32.12 27.6919 33.383C27.06 33.6121 26.3752 33.6941 25.715 33.8448H24.0624C23.9778 33.8228 23.895 33.7928 23.8095 33.7796C20.0724 33.1988 17.5711 31.1161 16.3478 27.5474C16.0745 26.7515 16.0031 25.886 15.8383 25.0452C14.9296 25.96 13.9892 26.9075 13.0021 27.9026C12.5728 27.4496 12.1744 27.0291 11.7655 26.5973C11.4605 26.8608 11.1944 27.1067 10.9132 27.3332C9.97188 28.0894 8.92393 28.2745 7.78872 27.8647C7.57102 27.7862 7.4485 27.8012 7.28545 27.966C5.41605 29.8478 3.53784 31.7207 1.66316 33.598C1.58736 33.6738 1.52478 33.7629 1.45515 33.8457H1.38905C0.926326 33.383 0.463604 32.9203 0.000881376 32.4575C0.000881376 32.4355 0.000881376 32.4135 0.000881376 32.3914L0 32.3905ZM24.8997 17.9131C21.0719 17.9043 17.9157 21.0543 17.914 24.8839C17.9113 28.7002 21.0393 31.8415 24.8601 31.8617C28.6844 31.882 31.8494 28.739 31.8626 24.9068C31.8758 21.079 28.732 17.921 24.8997 17.9131ZM8.91159 20.7916C10.3024 22.1816 11.6914 23.5715 13.0964 24.9755C14.1725 23.8967 15.2875 22.7844 16.3927 21.6642C16.5276 21.5276 16.6421 21.3575 16.7241 21.183C17.683 19.1523 19.1717 17.6592 21.2121 16.7153C21.3672 16.643 21.5179 16.539 21.6395 16.4183C22.8276 15.239 24.0096 14.0544 25.1932 12.8698C25.2593 12.8037 25.3175 12.7297 25.3536 12.6883C23.9426 11.2772 22.5509 9.88551 21.2147 8.55022C20.2611 9.50211 19.2915 10.4699 18.2595 11.5002C18.701 11.9382 19.1734 12.4071 19.5806 12.8117C19.1435 13.2559 18.6922 13.7142 18.1784 14.2351C17.7359 13.7874 17.2679 13.3141 16.8211 12.8619C16.3812 13.3026 15.9317 13.753 15.4637 14.2219C15.9265 14.674 16.4042 15.1412 16.8387 15.5651C16.3425 16.0648 15.8833 16.5276 15.3571 17.0564C14.9182 16.6086 14.4528 16.1327 14.0297 15.7008C13.582 16.1486 13.1263 16.6025 12.616 17.1128C13.0673 17.5596 13.5415 18.0294 13.9636 18.4481C13.5238 18.894 13.0708 19.3515 12.5693 19.86C12.1313 19.3991 11.6721 18.9152 11.2437 18.4639C10.4346 19.2713 9.6493 20.0539 8.90982 20.7916H8.91159ZM29.556 5.66284C29.103 5.20981 28.6403 4.74621 28.219 4.32491C26.8502 5.6928 25.4559 7.08714 24.0853 8.4568C24.5181 8.88955 24.9755 9.34699 25.425 9.79561C26.7991 8.42154 28.1899 7.02985 29.5569 5.66284H29.556ZM8.62426 23.5398C8.41185 23.7883 8.17564 24.0342 7.97469 24.3066C7.6618 24.7305 7.71909 25.3572 8.07869 25.7326C8.4471 26.1178 9.08963 26.1954 9.52591 25.8789C9.80707 25.6754 10.0583 25.4303 10.3077 25.217C9.74184 24.653 9.19892 24.1127 8.62426 23.5398Z" fill="#150B33"/>
<path d="M26.8158 29.608C26.4016 29.5092 25.9767 29.4423 25.5766 29.3039C25.1059 29.1408 24.6697 29.1576 24.1946 29.3021C23.7389 29.4405 23.2524 29.5313 22.7774 29.541C21.9224 29.5586 21.3125 29.0835 21.0551 28.2692C20.3633 26.0798 21.9497 22.9077 24.9526 22.958C27.156 22.995 28.546 24.7533 28.8077 26.4756C28.8747 26.9145 28.8677 27.3772 28.8148 27.8188C28.6782 28.9522 27.9607 29.5568 26.8158 29.6088V29.608ZM22.9475 27.542C23.5979 27.4186 24.2475 27.1983 24.8971 27.1983C25.5449 27.1983 26.1918 27.4186 26.8387 27.542C27.015 26.7312 26.5937 25.7026 25.9054 25.2549C25.2672 24.8406 24.3744 24.8679 23.7698 25.3201C23.1334 25.7969 22.7439 26.8528 22.9475 27.5403V27.542Z" fill="#150B33"/>
<path d="M24.0238 20.239V22.1842H22.0521V20.239H24.0238Z" fill="#150B33"/>
<path d="M25.752 22.1851V20.2373H27.7254V22.1851H25.752Z" fill="#150B33"/>
<path d="M19.1241 24.5604V22.6257H21.0852V24.5604H19.1241Z" fill="#150B33"/>
<path d="M28.6958 22.6187H30.6463V24.5612H28.6958V22.6187Z" fill="#150B33"/>
</svg>
