<svg width="34" height="34" viewBox="0 0 34 34" fill="none" xmlns="http://www.w3.org/2000/svg">
<path d="M5.42038 12.3189L1.72473 5.91309L3.20299 3.94208L8.62328 1.23193L10.3479 3.94208L13.3044 8.37686V10.3479L12.3189 11.5798L16.0146 17H13.3044L10.3479 16.0145L7.63777 13.7972L5.42038 12.3189Z" fill="#67E4FF"/>
<path d="M0.000887148 5.31324C0.218238 4.43053 0.823274 3.90357 1.588 3.46975C3.33656 2.47792 5.06029 1.44173 6.79467 0.423283C8.08458 -0.334342 9.29554 -0.0673103 10.1339 1.16316C11.4531 3.09981 12.7324 5.06484 14.0994 6.96778C15.2448 8.56198 15.101 10.4685 13.6754 11.7761C14.551 13.0891 15.4302 14.4074 16.3333 15.7621C16.9064 15.0107 17.6658 14.827 18.5281 14.8723C19.0905 14.9015 19.6565 14.874 20.2208 14.8785C21.375 14.8882 22.3056 15.8144 22.3109 16.9686C22.318 18.4067 22.318 19.8447 22.3109 21.2837C22.3056 22.4379 21.3741 23.3649 20.2199 23.3738C19.5119 23.3791 18.804 23.3747 18.0961 23.3747C17.3713 23.3747 16.8017 23.0722 16.3501 22.5106C16.2694 22.4104 16.1071 22.3216 15.982 22.3208C14.5111 22.3075 13.0393 22.3163 11.5675 22.3075C11.3635 22.3066 11.2526 22.366 11.1621 22.5532C10.7194 23.467 10.259 24.3727 9.81009 25.2838C9.49426 25.9252 9.01077 26.3511 8.30548 26.5285C8.18128 26.5596 8.04821 26.6909 7.98611 26.8106C7.53012 27.6933 7.08299 28.5814 6.65006 29.4756C6.20915 30.3867 5.50476 30.8418 4.48542 30.8143C3.95846 30.8001 3.95757 30.8117 3.79167 31.3147C3.60537 31.8807 3.40576 32.4422 3.23809 33.0127C3.10147 33.4767 2.85396 33.8253 2.39175 34.0001H1.86035C1.07256 33.5911 0.916424 33.2052 1.19499 32.3562C1.37952 31.7937 1.56493 31.2322 1.74768 30.6777C0.486157 29.952 0.1588 29.0897 0.605035 27.7395C0.670684 27.5407 0.738107 27.342 0.803756 27.1433C1.79914 24.1625 2.79186 21.1808 3.79167 18.2008C4.27428 16.7619 5.42935 15.9404 6.94726 15.9386C7.63302 15.9386 8.31879 15.9386 9.00544 15.9377C9.09771 15.9377 9.18997 15.9253 9.3257 15.9164C9.05512 15.5119 8.81825 15.1411 8.55921 14.7862C8.51751 14.7294 8.36936 14.7073 8.28685 14.7294C6.66337 15.1597 5.26611 14.6283 4.36033 13.2151C3.16801 11.3547 1.97479 9.49437 0.800208 7.62249C0.49769 7.14077 0.265257 6.61558 0 6.1099C0 5.84465 0 5.5785 0 5.31324H0.000887148ZM12.7599 9.06854C12.7049 8.93015 12.6543 8.68175 12.5239 8.48835C11.1346 6.42661 9.73113 4.37375 8.33565 2.31646C8.22386 2.15145 8.13426 2.10443 7.93732 2.22065C6.08584 3.32071 4.22904 4.41101 2.36957 5.49688C2.15488 5.62286 2.12827 5.75238 2.25868 5.95022C2.50708 6.32903 2.7475 6.71316 2.99146 7.09464C4.04894 8.75272 5.10465 10.4126 6.16568 12.068C6.58441 12.7209 7.27018 12.9498 7.91248 12.6012C9.33901 11.8267 10.7514 11.0256 12.1619 10.2218C12.5567 9.99739 12.727 9.6168 12.7599 9.06854ZM15.9225 18.0616H15.6076C12.7519 18.0616 9.89703 18.0616 7.0413 18.0616C6.32448 18.0616 6.00599 18.2967 5.77534 18.9886C4.85004 21.7619 3.92386 24.5342 2.99945 27.3074C2.85041 27.7545 2.7058 28.2043 2.54789 28.6878C3.18486 28.6878 3.78103 28.6781 4.37719 28.6931C4.58656 28.6985 4.68947 28.624 4.77907 28.4412C5.32466 27.3314 5.88534 26.2295 6.43271 25.1206C6.6616 24.6566 7.01379 24.3994 7.53899 24.4428C7.78118 24.4632 7.88409 24.3577 7.98345 24.1536C8.43678 23.2203 8.89632 22.2888 9.3745 21.368C9.77549 20.5961 10.4204 20.1898 11.3005 20.1881C12.7173 20.1854 14.134 20.1881 15.5499 20.1881H15.9225V18.0607V18.0616ZM20.1658 21.2358V17.0254H18.0792V21.2358H20.1658ZM10.3956 13.6702C10.8915 14.4154 11.3661 15.1313 11.8461 15.8437C11.8771 15.8898 11.9508 15.9333 12.0058 15.9342C12.609 15.9404 13.2114 15.9386 13.8794 15.9386C13.1733 14.8811 12.5035 13.8787 11.8292 12.8691C11.3431 13.1414 10.8915 13.3943 10.3956 13.672V13.6702Z" fill="#150B33"/>
<path d="M32.9381 15.937C32.3375 15.937 31.8718 15.4633 31.8771 14.8582C31.8824 14.2727 32.3482 13.8149 32.9373 13.8149C33.5388 13.8149 34.0045 14.2878 33.9992 14.8919C33.993 15.4766 33.5263 15.937 32.9381 15.937Z" fill="#150B33"/>
<path d="M29.7496 17.0057C29.747 17.6054 29.2706 18.0694 28.6655 18.0614C28.0845 18.0534 27.6249 17.5814 27.6276 16.9932C27.6302 16.3918 28.1031 15.9313 28.7108 15.9393C29.2936 15.9473 29.7523 16.4175 29.7496 17.0057Z" fill="#150B33"/>
<path d="M25.4994 19.1118C25.5047 19.7159 25.0372 20.1879 24.4348 20.187C23.8484 20.1861 23.3818 19.723 23.3774 19.1384C23.3729 18.5325 23.8369 18.0632 24.441 18.0649C25.0283 18.0658 25.495 18.528 25.4994 19.1118Z" fill="#150B33"/>
<path d="M33.9991 19.1277C33.9983 19.7283 33.5227 20.1932 32.9177 20.1861C32.3348 20.179 31.8753 19.7088 31.8771 19.1215C31.878 18.5191 32.3499 18.0578 32.9576 18.064C33.5414 18.0711 34.0009 18.5404 33.9991 19.1277Z" fill="#150B33"/>
<path d="M28.6983 20.1888C29.2838 20.1923 29.7469 20.6572 29.7495 21.2436C29.7513 21.8477 29.2829 22.3144 28.6779 22.3108C28.0808 22.3073 27.6177 21.8273 27.6275 21.2214C27.6372 20.6376 28.1065 20.1843 28.6983 20.1888Z" fill="#150B33"/>
<path d="M32.9362 22.3145C33.5377 22.3145 34.0052 22.7864 33.9999 23.3897C33.9946 23.9752 33.5279 24.4356 32.9407 24.4365C32.3401 24.4365 31.8725 23.9637 31.8779 23.3604C31.8832 22.774 32.3472 22.3153 32.9362 22.3145Z" fill="#150B33"/>
</svg>
