<svg width="30" height="24" viewBox="0 0 30 24" fill="none" xmlns="http://www.w3.org/2000/svg">
<path d="M21.5198 8.40302C15.7812 10.6985 14.7565 18.7872 14.7565 22.1347C19.0194 22.4626 22.9545 20.2218 24.3892 19.0605C29.308 16.601 27.9416 6.42183 26.6436 1.63964L24.7991 1.43469C25.7213 1.53717 27.2585 6.10757 21.5198 8.40302Z" fill="#FFD15C"/>
<path d="M29.0376 9.59304C29.1071 11.6344 29.1344 13.3442 28.678 15.0193C27.8065 18.2181 25.8041 20.4802 22.8921 21.9783C21.0194 22.9424 19.012 23.4509 16.9227 23.6451C16.1637 23.7154 15.3997 23.727 14.6383 23.7716C14.2166 23.7964 13.8793 23.6377 13.5849 23.3475C12.9169 22.6886 12.4134 21.9105 11.9661 21.0953C10.8871 19.1292 10.1753 17.0474 10.0926 14.7886C9.9942 12.0933 10.9723 9.79478 12.7648 7.81875C14.2207 6.21313 16.0058 5.05645 17.9248 4.09159C20.5101 2.79188 23.1005 1.50209 25.6891 0.20899C26.5201 -0.206058 27.2236 0.00311987 27.6742 0.818334C28.1554 1.68646 28.3563 2.64636 28.525 3.6104C28.8905 5.69721 29.0021 7.80635 29.0376 9.59222V9.59304ZM15.8107 21.0209C15.8627 21.0416 15.8809 21.0556 15.8991 21.0556C15.9818 21.0565 16.0645 21.0581 16.1463 21.0515C17.9454 20.911 19.6908 20.5497 21.3353 19.7783C22.3142 19.3194 23.2055 18.734 23.9785 17.9742C25.6875 16.2942 26.3902 14.2156 26.4291 11.8626C26.4647 9.73525 26.3969 7.61454 26.1124 5.50457C26.0074 4.72739 25.8677 3.95517 25.7396 3.14988C24.2348 3.90226 22.7788 4.62239 21.3286 5.35658C19.7958 6.13293 18.2183 6.82744 16.8011 7.8171C15.4485 8.76129 14.2571 9.86506 13.499 11.3541C12.3886 13.5368 12.5539 15.7493 13.4262 17.9618C13.4345 17.9825 13.4651 17.9949 13.508 18.0288C13.5271 17.9601 13.5411 17.9147 13.5519 17.8684C14.1637 15.1267 15.4816 12.782 17.5138 10.8423C18.8045 9.61041 20.2877 8.67696 21.9479 8.02628C22.6242 7.76088 23.3196 8.00644 23.647 8.61826C24.0446 9.36154 23.704 10.1619 22.8284 10.5298C20.4779 11.517 18.6457 13.1011 17.3551 15.2979C16.3208 17.0581 15.8073 18.9655 15.8107 21.0217V21.0209Z" fill="#150B33"/>
<path d="M3.35098 3.15992C2.83424 5.81721 2.60687 8.46955 2.64242 11.1475C2.6573 12.2827 2.66226 13.4146 3.01448 14.5109C3.86855 17.174 5.59737 19.0136 8.21415 20.0033C8.7929 20.2224 9.20961 20.5589 9.26913 21.1996C9.36008 22.1761 8.44813 22.8929 7.51469 22.5737C5.76603 21.9768 4.25053 21.0078 2.99133 19.6527C1.33196 17.8685 0.338988 15.7602 0.0843373 13.3418C-0.0256256 12.3009 -0.00908982 11.2401 0.0281157 10.1909C0.0851641 8.57456 0.175284 6.95736 0.315011 5.34677C0.434069 3.97265 0.651514 2.60845 1.17074 1.31452C1.26251 1.08633 1.37413 0.862269 1.50807 0.657225C1.91733 0.0321728 2.59612 -0.173698 3.26169 0.155364C5.89914 1.46252 8.53247 2.77959 11.1617 4.10411C11.8512 4.45219 12.0934 5.23516 11.7553 5.89493C11.4196 6.55058 10.649 6.80357 9.9562 6.45963C7.85533 5.41539 5.75942 4.36041 3.66185 3.30956C3.57008 3.26409 3.47748 3.22027 3.35098 3.15909V3.15992Z" fill="#150B33"/>
</svg>
