<svg width="34" height="34" viewBox="0 0 34 34" fill="none" xmlns="http://www.w3.org/2000/svg">
<path d="M24.3131 12.5414C24.3131 18.8235 25.8231 23.9161 19.541 23.9161C13.259 23.9161 8.16638 18.8235 8.16638 12.5414C8.16638 6.25936 13.259 1.16675 19.541 1.16675C25.8231 1.16675 24.3131 6.25936 24.3131 12.5414Z" fill="#97F597"/>
<path d="M19.5691 4.58347e-05C27.0749 -0.0155458 32.0783 3.94786 33.3677 10.1908C34.7429 16.8469 30.9838 24.136 23.0008 25.4597C20.2333 25.9181 17.6155 25.5626 15.1208 24.3121C14.7747 24.1391 14.611 24.2389 14.3849 24.4696C11.7078 27.2153 9.03537 29.9672 6.33801 32.6927C4.35631 34.6931 1.0992 33.9883 0.216716 31.3767C-0.2791 29.9096 0.0919823 28.6217 1.16469 27.5256C3.80592 24.8267 6.44715 22.1262 9.10397 19.4413C9.43919 19.103 9.5078 18.8613 9.27392 18.4076C6.96323 13.925 7.79427 8.20439 11.3008 4.29399C13.7939 1.51088 16.9045 0.0530575 19.5691 4.58347e-05ZM20.8305 23.241C26.8286 23.2519 31.3393 18.7787 31.3611 12.7961C31.3829 7.08023 26.643 2.34659 20.8804 2.32788C15.1613 2.30917 10.3092 6.99291 10.3622 12.6901C10.4261 19.566 15.5184 23.2675 20.8305 23.2426V23.241ZM10.9438 21.1673C10.0597 21.9874 9.12268 22.8076 8.24331 23.6854C6.42844 25.5002 4.63696 27.34 2.84859 29.1814C2.03782 30.0171 2.32159 31.185 3.38962 31.4625C3.95092 31.6091 4.36566 31.3346 4.73518 30.9573C6.40973 29.25 8.06713 27.524 9.76506 25.8386C10.7567 24.8532 11.8107 23.9286 12.7867 23.0227C12.0399 22.2712 11.4536 21.6803 10.9422 21.1673H10.9438Z" fill="#150B33"/>
<path d="M23.1536 18.8021C21.4074 20.2007 20.3346 20.2023 18.551 18.8084C18.0052 19.0766 17.4517 19.3541 16.8951 19.6223C16.1155 19.998 15.4622 19.839 15.1379 19.2028C14.8074 18.5542 15.0569 17.9306 15.8146 17.5345C16.2621 17.3007 16.7252 17.0933 17.1649 16.8469C17.2911 16.7768 17.3629 16.6115 17.4595 16.4899C17.313 16.4369 17.1711 16.3496 17.0214 16.3371C16.7111 16.3122 16.3977 16.3449 16.0875 16.3231C15.4763 16.2825 14.9976 15.7633 14.9961 15.1662C14.9961 14.5706 15.4747 14.0514 16.0844 14.0061C16.3556 13.9859 16.6316 14.0202 16.9014 13.9921C17.09 13.9734 17.2724 13.8939 17.458 13.8409C17.3099 13.6927 17.1836 13.5072 17.0089 13.4043C16.6067 13.1704 16.1748 12.9864 15.7647 12.765C15.0382 12.3737 14.809 11.7578 15.1395 11.1295C15.4716 10.4965 16.0953 10.3296 16.8437 10.6804C17.1228 10.8114 17.3956 10.9517 17.7963 11.1482C17.3566 10.1987 17.1882 9.32552 17.4673 8.41964C17.7402 7.53404 18.2454 6.81214 19.0421 6.321C20.2598 5.56949 21.8798 5.66615 22.9852 6.53929C24.3168 7.59173 24.6567 9.08853 23.9566 11.1279C24.3339 10.9393 24.627 10.7833 24.9295 10.6446C25.6187 10.3296 26.2751 10.5308 26.576 11.1388C26.88 11.7516 26.6524 12.3893 25.9804 12.751C25.4846 13.0176 24.97 13.2484 24.4758 13.5197C24.3667 13.5789 24.3136 13.7395 24.2341 13.8533C24.3479 13.9017 24.4602 13.9828 24.5771 13.989C24.9077 14.0077 25.2398 13.9843 25.5703 13.9999C26.2392 14.0326 26.6945 14.516 26.6898 15.1693C26.6851 15.8226 26.2267 16.2919 25.5532 16.3231C25.3006 16.334 25.0449 16.3059 24.7939 16.3324C24.6021 16.3527 24.4165 16.4322 24.2294 16.4852C24.3651 16.6255 24.4774 16.8048 24.6395 16.8968C25.062 17.1354 25.5095 17.3256 25.9399 17.5517C26.6462 17.9228 26.8894 18.5714 26.5698 19.1982C26.2532 19.8203 25.5984 19.9965 24.8656 19.6457C24.2871 19.3681 23.7165 19.0781 23.1505 18.799L23.1536 18.8021ZM22.0107 15.1272C22.0606 15.1054 22.1105 15.0851 22.1604 15.0633C21.9032 14.4318 21.7114 13.7629 21.3699 13.1829C21.0893 12.7042 20.6995 12.7495 20.3222 13.1658C19.5176 14.056 19.5052 16.2233 20.3003 17.1447C20.6886 17.5938 21.0222 17.6031 21.4027 17.1401C21.8813 16.5569 22.0061 15.8569 22.0107 15.1256V15.1272ZM20.8616 10.4887C21.4931 10.484 22.0045 9.96634 22.0045 9.32708C22.0045 8.70341 21.4713 8.16706 20.8523 8.17018C20.2333 8.1733 19.6954 8.719 19.7047 9.33644C19.7141 9.97725 20.2302 10.4918 20.8616 10.4887Z" fill="#150B33"/>
</svg>
