<svg width="57" height="73" viewBox="0 0 57 73" fill="none" xmlns="http://www.w3.org/2000/svg">
<path d="M28 19.0001C24.4 15.8001 26.5 7.66678 28 4.00011C21.2 0.000110626 17.1667 2.33344 16 4.00011L12.5 9.00011L8 13.0001C6.5 14.1668 3.2 16.7001 2 17.5001C0.8 18.3001 1.5 21.8334 2 23.5001V30.5001L0.5 35.0001L3.5 41.0001L10 46.0001C10.5 48.0001 15 56.0001 21.5 54.0001C28 52.0001 32.5 23.0001 28 19.0001Z" fill="#FF76D0"/>
<path d="M29.5 63V30.5L18 49.5L19.5 55V69L29.5 63Z" fill="#FF76D0"/>
<path d="M28 61C41.6 46.6 33.6667 27.6667 28 20L23 48.5L28 61Z" fill="#FF76D0"/>
<path d="M36.7854 0C37.5219 0.179104 38.2718 0.314384 38.9911 0.543027C42.2023 1.5662 44.5644 3.60303 45.9325 6.67638C46.8407 8.71702 48.2469 10.127 50.2942 11.0377C55.7435 13.4575 58.3804 19.7205 56.2778 25.2993C55.4707 27.4391 55.4592 29.4607 56.2702 31.6004C58.3804 37.1697 55.7531 43.4555 50.3152 45.8734C48.2698 46.7823 46.8293 48.1694 45.9459 50.2253C44.9251 52.6012 43.2021 54.3789 40.9068 55.566C40.3897 55.8327 40.2733 56.1395 40.2752 56.6692C40.2924 61.7812 40.2848 66.8914 40.2848 72.0035V73C39.9566 72.798 39.741 72.6742 39.5349 72.537C36.0489 70.2182 32.5573 67.9089 29.0885 65.5672C28.6363 65.2623 28.3501 65.2795 27.9093 65.5767C24.4577 67.9032 20.987 70.1991 17.5201 72.5046C17.3084 72.6456 17.087 72.7752 16.7588 72.979C16.7398 72.6075 16.715 72.3388 16.715 72.0702C16.7131 66.9352 16.7054 61.8003 16.7245 56.6654C16.7264 56.13 16.5967 55.8327 16.0853 55.566C13.7957 54.3732 12.0708 52.5993 11.05 50.2214C10.1685 48.1675 8.72416 46.788 6.67877 45.8696C1.1913 43.4098 -1.39026 37.1373 0.750543 31.5299C1.53665 29.4702 1.55 27.4924 0.765808 25.4289C-1.41315 19.7052 1.20847 13.4823 6.83332 10.9787C8.75279 10.1232 10.0998 8.78751 10.9699 6.86691C12.7081 3.0238 15.7113 0.786913 19.8861 0.120038C19.9987 0.102889 20.1036 0.0419179 20.2124 0C21.0214 0 21.8304 0 22.6413 0C24.0895 0.415368 25.5167 0.941247 26.9897 1.2099C28.0085 1.39472 29.1209 1.37186 30.1417 1.18132C31.5708 0.914572 32.9541 0.405841 34.3565 0C35.1655 0 35.9764 0 36.7854 0ZM52.7441 21.763C52.5495 18.3238 51.149 16.0888 48.3252 14.8389C45.4765 13.5776 43.4349 11.556 42.1622 8.70558C40.4851 4.94441 36.7167 3.3763 32.8683 4.83771C29.9547 5.94472 27.0851 5.95615 24.1677 4.85104C20.2677 3.37439 16.5032 4.94631 14.8184 8.73226C13.5839 11.5065 11.6034 13.5014 8.83865 14.7627C4.84897 16.5823 3.36835 20.2139 4.91003 24.3124C5.94799 27.0751 5.95181 29.8322 4.91385 32.5969C3.36072 36.7258 4.86615 40.3764 8.89207 42.1884C11.5938 43.406 13.5362 45.359 14.7592 48.0474C16.5661 52.0201 20.2238 53.5691 24.2993 52.0315C27.1232 50.9664 29.9108 50.9683 32.7252 52.0392C36.7301 53.5615 40.4546 52.0087 42.2214 48.0855C43.4578 45.3418 45.444 43.3679 48.1954 42.1446C52.0649 40.426 53.6295 36.6724 52.1202 32.7036C51.0422 29.8684 51.0536 27.0561 52.1069 24.2133C52.4408 23.3121 52.5972 22.346 52.746 21.763H52.7441ZM21.029 64.988C21.3648 64.7803 21.5842 64.6526 21.796 64.5135C23.8548 63.1436 25.9212 61.7831 27.9647 60.3922C28.3539 60.1274 28.6172 60.1026 29.0236 60.3789C31.0862 61.787 33.1736 63.1588 35.2533 64.5402C35.4594 64.6774 35.6731 64.8012 35.9497 64.9708V56.9207C34.2211 56.9435 32.6088 56.6044 31.0442 55.989C29.3327 55.3183 27.625 55.3907 25.8868 55.989C24.7706 56.3738 23.5991 56.6063 22.4428 56.8597C21.9906 56.9588 21.5098 56.9245 21.0309 56.9512V64.9842L21.029 64.988Z" fill="#150B33"/>
<path d="M47 28.5143C47.0153 38.6836 38.6953 46.9981 28.5029 47C18.3105 47 9.98095 38.6836 10 28.522C10.0191 18.2935 18.2704 10.0153 28.4609 10C38.6953 9.98666 46.9847 18.2649 47 28.5143ZM32.8337 42.027C32.6218 41.7446 32.4787 41.5556 32.3393 41.3648C29.6977 37.7562 30.1749 32.9339 33.4807 29.9246C35.3474 28.2243 37.5787 27.6327 40.06 27.6995C41.6996 27.7434 42.6444 26.4743 42.2454 24.8962C40.8158 19.2648 36.0269 15.1314 30.0604 14.3815C23.1414 13.5113 16.2796 18.2782 14.7088 25.0431C14.39 26.4133 15.3234 27.6441 16.7339 27.709C17.0908 27.7243 17.4477 27.7033 17.8047 27.7147C21.2728 27.8235 23.8953 29.3902 25.4394 32.4798C26.9874 35.5788 26.6133 38.6073 24.6149 41.4335C24.4851 41.6167 24.3572 41.7999 24.1911 42.0365C27.0981 42.9391 29.9115 42.9411 32.8337 42.027ZM14.7107 31.8233C14.7126 31.8099 14.6897 31.8557 14.6992 31.8939C15.4837 35.0483 17.1786 37.6169 19.6943 39.6645C20.0245 39.9336 20.2268 39.8057 20.4883 39.5958C21.8339 38.5138 22.3951 36.6265 21.853 34.9625C21.2995 33.2603 19.7477 32.0867 17.9593 32.0027C16.8961 31.9531 15.8349 31.8863 14.7088 31.8233H14.7107ZM42.3161 31.8176C41.188 31.8825 40.1497 31.9416 39.1114 32.0027C37.3057 32.1096 35.983 32.9721 35.2787 34.6285C34.582 36.2658 34.8913 37.8001 36.0479 39.1435C36.8152 40.0366 36.8916 40.0271 37.7867 39.2485C38.0559 39.0138 38.3212 38.7752 38.5712 38.5214C40.4417 36.6208 41.711 34.3881 42.318 31.8176H42.3161Z" fill="#150B33"/>
</svg>
