<svg width="62" height="73" viewBox="0 0 62 73" fill="none" xmlns="http://www.w3.org/2000/svg">
<path d="M31 21V1.5C27.8 9.5 11.3333 12.5 3.5 13V41.5C5.9 57.9 21.1667 67 28.5 69.5C27.1667 70.5 25.8 71.9 31 69.5C36.2 67.1 35.8333 54.1667 35 48V38.5H43.5V30.5H35V21H31Z" fill="#67E4FF"/>
<path d="M30.1293 73C27.6861 71.9812 25.1838 71.0862 22.811 69.9226C11.008 64.1354 3.90293 54.7204 1.3378 41.8452C0.296136 36.6274 -0.0199826 31.3505 0.000965017 26.045C0.0161996 22.364 0.0733294 18.681 0.124746 14.9999C0.168546 11.8083 1.95671 10.0278 5.13884 9.99728C10.3015 9.94967 15.2946 9.11558 19.985 6.84943C22.5482 5.61162 24.8638 4.01199 26.9681 2.10004C27.2671 1.82772 27.5566 1.54588 27.8594 1.27928C29.8037 -0.430806 32.2526 -0.438424 34.157 1.32879C36.0803 3.11314 38.1161 4.73182 40.4051 6.02105C44.5336 8.34814 49.0012 9.50216 53.6953 9.85446C54.8551 9.94206 56.0186 9.96872 57.1822 9.99538C59.8292 10.0544 61.7716 11.8483 61.8135 14.4991C61.922 21.3128 62.2248 28.1322 61.6135 34.9382C61.0594 41.1006 59.7854 47.084 57.0013 52.6713C53.383 59.9344 47.8243 65.2799 40.7459 69.1209C37.9256 70.6501 34.9987 71.9374 31.9346 72.901C31.8965 72.9124 31.8699 72.9657 31.8394 72.9981H30.1293V73ZM4.39615 24.1617C4.35235 24.1617 4.30855 24.1617 4.26666 24.1617C4.26666 24.8263 4.26666 25.4909 4.26666 26.1574C4.27618 31.9161 4.60753 37.6386 6.03768 43.2506C7.7192 49.8491 10.8461 55.6021 15.9287 60.2144C20.2173 64.1068 25.2409 66.7176 30.6682 68.6067C30.9234 68.6962 31.2814 68.6429 31.5423 68.5363C33.3438 67.8069 35.1682 67.1233 36.9163 66.2796C45.1868 62.2958 51.2997 56.2495 54.577 47.5506C56.7213 41.8605 57.5173 35.9209 57.6202 29.8899C57.7039 24.952 57.584 20.0102 57.5802 15.0723C57.5802 14.4534 57.3878 14.2915 56.7708 14.2515C54.3104 14.0935 51.831 14.0116 49.4011 13.6269C42.5817 12.5434 36.644 9.58976 31.649 4.80228C31.1557 4.33001 30.8682 4.26717 30.3388 4.78133C27.8327 7.21125 25.0029 9.19175 21.8588 10.7171C16.6276 13.2537 11.0575 14.2173 5.2988 14.2535C4.56754 14.2573 4.3752 14.4763 4.38282 15.1847C4.4171 18.1764 4.39805 21.1681 4.39805 24.1617H4.39615Z" fill="#150B33"/>
<path d="M37.3924 42.2051C37.3924 44.3989 37.3924 46.5089 37.3924 48.6189C37.3924 50.4337 36.6116 51.2069 34.7873 51.2088C32.1745 51.2088 29.5618 51.2126 26.9472 51.2088C25.4237 51.205 24.5801 50.3518 24.5763 48.815C24.5706 46.8669 24.5763 44.9188 24.5763 42.9706C24.5763 42.7402 24.5763 42.5079 24.5763 42.207C23.706 42.207 22.9062 42.207 22.1045 42.207C20.6553 42.207 19.2061 42.2222 17.7569 42.2013C16.4867 42.1842 15.5879 41.3044 15.5802 40.0494C15.5631 37.2234 15.5631 34.3955 15.5802 31.5694C15.5879 30.2783 16.4848 29.4061 17.8083 29.3947C19.7793 29.3757 21.7522 29.389 23.7231 29.389C23.9802 29.389 24.2373 29.389 24.5763 29.389C24.5763 29.0805 24.5763 28.8272 24.5763 28.5739C24.5763 26.6258 24.5706 24.6777 24.5782 22.7296C24.5839 21.2804 25.437 20.3968 26.8615 20.3891C29.617 20.3758 32.3726 20.3758 35.1281 20.3891C36.5183 20.3968 37.3829 21.2766 37.3905 22.6762C37.4019 24.8815 37.3943 27.0867 37.3943 29.3871C37.6914 29.3871 37.9427 29.3871 38.1941 29.3871C40.1422 29.3871 42.0904 29.3795 44.0385 29.389C45.5277 29.3966 46.3903 30.2517 46.3941 31.7294C46.4018 34.4374 46.4018 37.1453 46.3941 39.8533C46.3903 41.3367 45.5296 42.1975 44.0518 42.2032C41.8676 42.2108 39.6852 42.2051 37.3943 42.2051H37.3924ZM42.0808 33.6623C39.8147 33.6623 37.6095 33.668 35.4043 33.6604C34.0084 33.6547 33.1324 32.7863 33.121 31.4C33.1115 30.0707 33.1191 28.7396 33.1191 27.4104C33.1191 26.5154 33.1191 25.6203 33.1191 24.7158H28.8515C28.8515 26.9781 28.8591 29.1852 28.8496 31.3923C28.8439 32.7825 27.966 33.6547 26.5739 33.6604C24.6505 33.6699 22.7253 33.6623 20.8019 33.6623C20.501 33.6623 20.202 33.6623 19.884 33.6623V37.9299H20.6115C22.5348 37.9299 24.4601 37.928 26.3835 37.9299C28.0174 37.9337 28.8477 38.7526 28.8515 40.3693C28.8553 42.2927 28.8515 44.218 28.8515 46.1413C28.8515 46.3927 28.8515 46.6422 28.8515 46.8898H33.1172C33.1172 46.6155 33.1172 46.3832 33.1172 46.1509C33.1172 44.1799 33.1115 42.2089 33.1191 40.236C33.1248 38.804 33.9932 37.9432 35.4328 37.9318C36.3355 37.9242 37.2381 37.9318 38.1408 37.9318C39.4414 37.9318 40.7402 37.9318 42.0789 37.9318V33.6642L42.0808 33.6623Z" fill="#150B33"/>
</svg>
