<svg width="80" height="68" viewBox="0 0 80 68" fill="none" xmlns="http://www.w3.org/2000/svg">
<path d="M41 29.9854C35.8 20.7854 38.8334 8.81874 41 3.98541C11.8 -0.414589 2.83335 22.4854 2.00001 34.4854C1.60001 46.8854 10.8333 45.3187 15.5 42.9854C15.5 53.3854 23.8333 57.3187 28 57.9854C46.5 50.9854 47.5 41.4854 41 29.9854Z" fill="#FC8864"/>
<path d="M80 38.7708C79.5431 40.029 79.2531 41.3831 78.6 42.5306C76.3884 46.4218 72.155 48.1932 67.7338 47.2313C67.6358 47.2105 67.5314 47.2105 67.3562 47.1938C67.2602 47.5965 67.1747 47.9929 67.0703 48.3831C65.4221 54.536 61.4975 58.3291 55.2757 59.7083C54.6519 59.846 54.2367 60.1026 53.8486 60.6179C46.9195 69.8358 32.9279 69.7544 26.051 60.4927C25.8068 60.1631 25.3562 59.8731 24.9556 59.7917C18.5544 58.4856 14.1353 54.1041 12.8 47.6924C12.7687 47.5422 12.7207 47.3962 12.6623 47.1834C12.2471 47.2522 11.8486 47.3232 11.448 47.3857C5.76243 48.2516 0.333514 43.9995 0.0998326 38.2555C-0.0462181 34.6793 -0.0921197 31.0406 0.389848 27.5082C1.60833 18.5971 6.34872 11.9017 14.104 7.37828C17.6843 5.28976 21.5881 4.17977 25.7276 3.89602C26.149 3.86681 26.5955 3.72076 26.969 3.51837C35.3982 -1.04258 43.9004 -1.19489 52.4089 3.21167C53.617 3.8376 54.8292 3.9148 56.0706 4.06711C67.7463 5.50258 77.6173 14.9208 79.5389 26.4838C79.6996 27.454 79.8435 28.4284 79.9958 29.4006V38.7708H80ZM61.9523 35.5765C61.9523 35.5765 61.944 35.5765 61.9398 35.5765C61.921 35.1863 61.9085 34.7962 61.8835 34.406C61.6686 30.9008 61.6039 27.3768 61.2074 23.8924C59.7887 11.4406 47.9314 2.9446 35.6715 5.49632C26.6498 7.37411 19.6685 14.8999 18.8361 23.9947C18.2706 30.1831 18.0432 36.4048 17.6927 42.612C17.6176 43.9306 17.5237 45.2743 17.6927 46.5741C18.2706 51.0266 21.924 54.4567 26.4828 54.9741C30.8185 55.4644 35.1374 52.8418 36.7586 48.7691C36.9818 48.2057 36.8566 47.8781 36.4998 47.4045C35.3565 45.8981 34.2131 44.3771 33.2554 42.7518C32.2498 41.0388 32.3228 39.1652 33.0259 37.3249C34.5636 33.3044 39.2414 31.4182 43.1535 33.2042C46.4542 34.7106 49.0226 39.184 46.4751 43.3714C45.6009 44.8069 44.5389 46.1339 43.4936 47.4567C43.1389 47.9074 43.068 48.2391 43.2787 48.7628C45.0584 53.1777 49.8009 55.7544 54.4849 54.8197C59.2086 53.8767 62.6805 49.564 62.4885 44.7652C62.3654 41.6981 62.1338 38.6352 61.9523 35.5702V35.5765ZM18.9195 10.5872C18.5899 10.7041 18.3958 10.7521 18.2185 10.8376C11.4355 14.1112 7.1666 19.4108 5.51831 26.7634C4.68374 30.4856 4.94872 34.2871 5.10311 38.0427C5.2429 41.4081 8.94633 43.4424 12.0071 42.0904C12.4808 41.8817 12.727 41.6334 12.7583 41.0659C13.0274 36.1294 13.3988 31.1992 13.6074 26.2626C13.8411 20.7711 15.3162 15.7199 18.5043 11.209C18.6191 11.0483 18.7234 10.8814 18.9174 10.5872H18.9195ZM61.293 10.7333C62.9788 13.1953 64.285 15.8033 65.1905 18.6263C66.2817 22.0209 66.3484 25.5366 66.5612 29.0376C66.8054 33.0373 67.0495 37.037 67.2623 41.0388C67.2936 41.6313 67.5523 41.9026 68.0593 42.1196C71.262 43.4883 74.8987 41.1911 74.9842 37.688C75.0385 35.4764 75.0468 33.2626 74.9863 31.051C74.8006 24.1637 72.0632 18.4761 66.82 14.0111C65.1738 12.609 63.3356 11.5032 61.2909 10.7354L61.293 10.7333ZM48.0587 59.316C44.7016 58.2352 42.0498 56.2176 40.003 53.3217C37.9311 56.3115 35.2229 58.2623 31.8554 59.3661C36.8358 63.9708 44.4554 63.0653 48.0587 59.316ZM39.8048 43.8784C39.9404 43.8826 40.0739 43.8868 40.2095 43.893C40.8626 42.8769 41.5824 41.8984 42.1499 40.8385C42.8927 39.451 42.0998 37.9112 40.535 37.5795C39.5606 37.3729 38.7261 37.6775 38.0918 38.4412C37.4909 39.1652 37.3261 39.9685 37.8519 40.8135C38.4924 41.8421 39.1517 42.8582 39.8048 43.8805V43.8784Z" fill="#150B33"/>
<path d="M30.0277 27.5227C28.6736 27.5269 27.5386 26.4064 27.5261 25.0523C27.5136 23.6565 28.657 22.5152 30.0528 22.5319C31.409 22.5486 32.5231 23.6815 32.5169 25.0398C32.5106 26.3981 31.386 27.5206 30.0277 27.5248V27.5227Z" fill="#150B33"/>
<path d="M52.5091 24.9939C52.5258 26.3522 51.42 27.4955 50.0659 27.5227C48.7118 27.5498 47.5538 26.4481 47.5184 25.0961C47.4808 23.7003 48.6054 22.5382 49.9991 22.5298C51.3574 22.5236 52.4924 23.6377 52.5091 24.9939Z" fill="#150B33"/>
</svg>
