<svg width="76" height="73" viewBox="0 0 76 73" fill="none" xmlns="http://www.w3.org/2000/svg">
<path d="M40.5 31.0317C32.9 41.0317 33.3333 61.1984 34.5 70.0317C16.1 70.0317 6.5 55.6984 4 48.5317V11.0317V3.53174L17.5 14.5317C31.1 4.93169 44.5 8.19835 49.5 11.0317C56.7 16.2317 46.5 26.5317 40.5 31.0317Z" fill="#97F597"/>
<path d="M75.9981 4.00375V41.782C75.9072 42.4593 75.8107 43.1365 75.7235 43.8156C74.7847 51.1259 71.688 57.4047 66.4613 62.572C60.1009 68.8582 52.373 71.9661 43.4151 71.9976C39.8044 72.0106 36.19 72.0811 32.5812 71.9698C30.2935 71.8993 27.9761 71.7323 25.7384 71.2851C18.6693 69.8713 12.7839 66.3423 8.01728 60.9486C4.15058 56.5735 1.67916 51.5119 0.590025 45.786C0.337687 44.4613 0.192964 43.1179 0 41.782C0 29.1893 0 16.5965 0 4.00375C0.17441 3.54731 0.309856 3.07233 0.528796 2.64001C2.02983 -0.317533 5.83716 -0.866739 8.29745 1.53418C11.3032 4.46946 14.2923 7.42329 17.2629 10.392C17.6822 10.8094 17.9642 10.8818 18.5041 10.5701C23.2744 7.82035 28.401 6.15418 33.8912 5.5957C42.0532 4.76447 49.7253 6.30818 56.9207 10.2343C58.1768 10.9189 58.1712 10.9282 59.201 9.91142C62.0342 7.11715 64.8582 4.3136 67.7026 1.53232C69.8122 -0.529052 72.9107 -0.52163 74.7402 1.62138C75.3098 2.28748 75.5881 3.2022 76 4.00189L75.9981 4.00375ZM6.10063 7.90385C6.08579 8.21927 6.0728 8.36214 6.0728 8.50501C6.0728 18.8972 6.06723 29.2895 6.07466 39.6817C6.07651 42.4871 6.49398 45.235 7.38644 47.9012C9.25114 53.4675 12.6057 57.9409 17.4206 61.2881C21.1834 63.9042 25.3711 65.5667 29.9577 65.7708C34.869 65.9897 39.7988 65.9879 44.7157 65.8747C50.6197 65.7393 55.9058 63.6853 60.4089 59.891C66.6746 54.6086 69.8734 47.7973 69.9124 39.5963C69.9606 29.2783 69.9253 18.9603 69.9216 8.64231C69.9216 8.43821 69.8919 8.23597 69.8753 8.03187C69.801 7.98549 69.725 7.94096 69.6507 7.89457C69.4782 8.13763 69.3372 8.41038 69.1294 8.61633C66.4613 11.2603 63.7839 13.8932 61.1084 16.5279C59.5368 18.0753 58.3197 18.1402 56.4012 17.0418C54.3509 15.8673 52.2357 14.7986 50.1131 13.7577C49.2633 13.3402 48.3171 13.1232 47.3022 12.7762C47.3022 13.2029 47.3077 13.4942 47.3022 13.7855C47.2799 14.8209 47.3374 15.8655 47.2131 16.8897C46.9905 18.721 45.1165 19.8416 43.352 19.2813C42.0958 18.8824 41.2757 17.8137 41.2535 16.4518C41.2275 14.8561 41.2479 13.2586 41.2479 11.5535H34.7521C34.7521 11.9375 34.7521 12.2029 34.7521 12.4682C34.7484 13.8505 34.7892 15.2346 34.728 16.6151C34.6278 18.8193 32.1916 20.1292 30.2657 19.0438C29.1376 18.4074 28.6978 17.3869 28.6923 16.1401C28.6886 15.0602 28.6923 13.9822 28.6923 12.8263C28.3286 12.9246 28.0688 12.9859 27.8147 13.0638C24.82 13.9915 22.0554 15.3868 19.4393 17.103C17.7638 18.2033 16.4001 18.0308 14.977 16.628C12.2495 13.9395 9.52389 11.2492 6.79642 8.55881C6.60716 8.37141 6.40863 8.19329 6.09878 7.90014L6.10063 7.90385Z" fill="#150B33"/>
<path d="M35.8561 48.8417C34.5573 47.5355 33.2752 46.2682 32.0209 44.9732C30.7407 43.6502 31.0357 41.7633 32.6202 41.1399C33.0006 40.9914 33.4366 40.9302 33.8485 40.9283C36.6187 40.9098 39.3888 40.9061 42.159 40.9228C44.0812 40.9358 45.2705 42.4108 44.6304 44.0028C44.4616 44.4202 44.135 44.7969 43.8159 45.1309C42.6228 46.3814 41.4038 47.6079 40.1477 48.89C41.1682 50.1387 42.5301 50.7435 44.1907 50.5135C45.8643 50.2834 47.0295 49.326 47.6677 47.7563C47.7976 47.4372 47.8718 47.0976 47.9906 46.7729C48.5379 45.2756 50.1039 44.4685 51.6365 44.8878C53.1653 45.3071 54.0912 46.8045 53.7925 48.3723C52.7553 53.8143 46.9552 57.6197 41.4947 56.3803C40.4501 56.1428 39.4742 55.6159 38.45 55.2726C38.1661 55.178 37.7653 55.1464 37.5167 55.2745C33.5906 57.3006 29.8037 57.1095 26.2042 54.5434C24.0742 53.0238 22.7123 50.9402 22.1705 48.3686C21.8439 46.8156 22.818 45.2979 24.3376 44.886C25.9073 44.4611 27.49 45.2775 27.991 46.8527C28.3361 47.9344 28.7591 48.9345 29.6868 49.6451C31.6294 51.135 34.1677 50.814 35.8561 48.8399V48.8417Z" fill="#150B33"/>
<path d="M27.5085 33.9613C27.4899 35.7296 26.0464 37.1657 24.2874 37.1675C22.5025 37.1675 21.0497 35.6925 21.0646 33.8908C21.0776 32.13 22.5266 30.6884 24.2837 30.6865C26.0724 30.6847 27.527 32.1616 27.5085 33.9595V33.9613Z" fill="#150B33"/>
<path d="M54.9335 33.9152C54.9391 35.7113 53.4659 37.1882 51.6865 37.1678C49.9202 37.1474 48.4971 35.7094 48.4897 33.9394C48.4822 32.1414 49.9517 30.6701 51.7366 30.6887C53.4993 30.7072 54.928 32.1489 54.9335 33.9152Z" fill="#150B33"/>
</svg>
