<svg width="66" height="67" viewBox="0 0 66 67" fill="none" xmlns="http://www.w3.org/2000/svg">
<path d="M11 47L36.5 10.5V23.5L17.5 52C18.3 56 17.1667 60 16.5 61.5C10.5 67.1 5.00001 63.8333 3.00002 61.5C-0.999978 52.7 6.66669 48.1667 11 47Z" fill="#AD6CFF"/>
<path d="M34 48L8.49999 13C5.29999 13 6.16666 18.6667 6.99999 21.5L27 52.5L34 48Z" fill="#AD6CFF"/>
<path d="M8.81372 66.2356C7.92453 66.006 7.00301 65.8621 6.15262 65.5339C2.03 63.9398 -0.310998 60.0694 0.0333616 55.5103C0.33407 51.5202 3.50606 47.9408 7.60927 47.0905C8.39014 46.9288 8.83959 46.5828 9.25832 45.9652C10.9235 43.5111 12.6195 41.0763 14.3316 38.6528C14.6129 38.2551 14.6129 37.9932 14.3348 37.5907C12.2088 34.5141 9.96159 31.5086 8.03608 28.3091C4.33705 22.164 3.32337 15.4805 4.61351 8.43812C4.85763 7.10757 5.0969 5.77701 5.36851 4.27832C10.8702 12.2051 16.291 20.017 21.7668 27.9082C27.1893 20.0962 32.5729 12.3409 38.0552 4.44322C38.2411 5.4569 38.3915 6.32508 38.5612 7.19002C39.1012 9.94004 39.4536 12.6998 39.3049 15.5161C39.0139 21.0275 37.2533 26.0199 34.112 30.5418C32.4808 32.8893 30.8624 35.2464 29.2134 37.5826C28.9369 37.9738 28.9143 38.239 29.2005 38.6448C30.9853 41.1749 32.7459 43.7196 34.4936 46.2756C34.7361 46.6297 35.0255 46.7768 35.4232 46.856C39.57 47.687 42.1713 50.1978 43.2125 54.2573C44.155 57.9337 42.6256 61.9836 39.4439 64.2082C36.2315 66.4538 32.7556 66.7578 29.2732 64.9373C25.7827 63.1137 24.0916 60.071 24.0916 56.1537C24.0916 55.1659 24.4441 54.1781 24.6252 53.1887C24.6656 52.9688 24.761 52.6762 24.6623 52.5291C23.7344 51.1403 22.7692 49.7742 21.7668 48.3353C20.7337 49.8275 19.7346 51.2486 18.7694 52.6924C18.6708 52.8395 18.7403 53.1418 18.8066 53.3471C20.467 58.401 18.1389 63.5308 13.2225 65.5355C12.3964 65.8718 11.4894 66.0076 10.6196 66.2372H8.81211L8.81372 66.2356ZM8.15087 15.0941L8.02315 15.1313C8.02315 15.2558 8.01668 15.3819 8.02315 15.5064C8.29152 20.1803 9.87267 24.3854 12.5305 28.2121C17.2756 35.046 22.0158 41.883 26.7592 48.7185C26.8789 48.8899 27.013 49.0531 27.1036 49.1712C28.2159 48.4889 29.2861 47.8309 30.3952 47.1503C22.9939 36.4865 15.5716 25.7903 8.14925 15.0941H8.15087ZM3.87305 56.5644C3.94257 59.801 6.53739 62.4153 9.66573 62.3457C13.1126 62.2698 15.5037 59.6135 15.4649 56.5062C15.4228 53.2032 12.7827 50.6699 9.60591 50.7345C6.38219 50.8008 3.80515 53.4215 3.87144 56.5644H3.87305ZM39.5603 56.3898C39.5991 53.2016 36.9946 50.602 33.7386 50.5793C30.5941 50.5583 28.0073 53.1418 27.941 56.3704C27.8764 59.4842 30.565 62.1663 33.7822 62.2002C36.9089 62.2326 39.5199 59.607 39.5587 56.3898H39.5603ZM35.5315 15.2897C35.4539 15.2671 35.3747 15.2429 35.2971 15.2202C31.5803 20.578 27.8634 25.9358 24.1304 31.313C24.9113 32.4382 25.676 33.5408 26.4714 34.6887C26.5976 34.5367 26.6703 34.4623 26.7285 34.3766C28.1868 32.2749 29.6548 30.1797 31.1001 28.0682C32.8655 25.4896 34.1621 22.6927 34.825 19.6338C35.1354 18.2014 35.3003 16.7383 35.5315 15.2897ZM16.3411 49.3393C17.2885 47.9748 18.2586 46.5893 19.2108 45.1941C19.2868 45.0825 19.3288 44.8481 19.2658 44.7527C18.5528 43.6889 17.8172 42.6397 17.0444 41.5257C15.6621 43.5191 14.3283 45.4414 13.0366 47.3039C14.1715 48.0039 15.224 48.6522 16.3395 49.3393H16.3411Z" fill="#150B33"/>
<path d="M59.6738 66.2354C58.7539 65.8506 57.7435 65.6033 56.9335 65.0552C55.2004 63.8815 54.5262 62.1015 54.5262 60.045C54.5262 54.5821 54.5262 49.1193 54.5262 43.6548C54.5262 43.4026 54.5262 43.152 54.5262 42.84H42.9489V38.9582H54.4793V35.0717H42.9473V31.2158H54.4793V27.3066H42.9473V23.4249H54.4793V19.5464H42.9489V15.6711H54.4777V11.7975H42.9522V7.92708H54.4712V3.90794H42.9409V0.014896C43.1785 0.014896 43.4243 0.014896 43.6716 0.014896C49.0698 0.014896 54.4696 0.0504637 59.8678 0.00034563C62.7537 -0.0271385 65.1415 1.58634 65.9143 4.18439C65.9256 4.21996 65.9709 4.24421 66 4.27493V61.9754C65.5393 63.1345 64.9427 64.1886 63.9339 64.9824C63.0511 65.676 62.031 65.9977 60.9656 66.2354H59.6754H59.6738ZM58.4047 3.89824V4.73084C58.4047 23.0967 58.4047 41.4609 58.4079 59.8268C58.4079 60.1889 58.4193 60.5624 58.5033 60.9132C58.7086 61.7636 59.4831 62.3472 60.3415 62.3537C61.1757 62.3601 61.9469 61.8105 62.1862 61.0021C62.2638 60.7402 62.28 60.4508 62.28 60.176C62.2848 42.1335 62.2832 24.091 62.2832 6.04685C62.2832 5.96116 62.2816 5.87547 62.2767 5.78817C62.2169 4.72923 61.4959 3.96776 60.4401 3.9047C59.7983 3.86752 59.1516 3.89824 58.4031 3.89824H58.4047Z" fill="#150B33"/>
</svg>
