<svg width="75" height="69" viewBox="0 0 75 69" fill="none" xmlns="http://www.w3.org/2000/svg">
<g clip-path="url(#clip0_184_2063)">
<path d="M37.5 41.5001C43.9 51.5001 40.1666 62.0001 37.5 66.0001C11.1 58.4001 2.49998 34.8334 1.5 24.0001C8.7 -3.19991 26.1667 1.66676 34 7.5001L45.5 4.0001C30.5 9.5001 29.5 29.0001 37.5 41.5001Z" fill="#7CA1FF"/>
<path d="M75 24.9895C74.8242 26.2976 74.6953 27.6154 74.4668 28.9139C73.1797 36.2387 70.2656 42.9104 65.9531 48.9772C59.0625 58.6698 49.8086 65.2239 38.4199 68.8632C37.8789 69.0366 37.1875 69.0482 36.6484 68.8786C27.4395 65.9734 19.502 61.0799 13.0449 53.9497C6.49219 46.7173 2.23242 38.3503 0.498047 28.7733C0.271484 27.5229 0.162109 26.2514 0 24.9895C0 23.6409 0 22.2923 0 20.9437C0.162109 19.9515 0.277344 18.9516 0.492188 17.971C3.78125 3.10563 20.2207 -4.41569 33.8477 2.72417C35.1309 3.39654 36.3164 4.24809 37.5762 5.03605C37.6836 4.95899 37.8223 4.86459 37.957 4.76441C42.7695 1.16365 48.1758 -0.42384 54.207 0.102113C63.5059 0.915124 71.5703 7.48472 74.084 16.3585C74.5078 17.8535 74.7012 19.4121 75.002 20.9418V24.9876L75 24.9895ZM70.6465 23.0456C70.5938 22.2538 70.5625 21.46 70.4824 20.6701C69.2559 8.8179 56.7363 1.24071 45.4668 5.51384C43.1094 6.40777 41.0625 7.76407 39.166 9.38239C38.0059 10.3726 37.0117 10.3476 35.8281 9.38239C35.3203 8.96817 34.8184 8.54626 34.2988 8.14553C24.0156 0.240826 8.68359 5.19596 5.11914 17.5626C3.99219 21.4735 4.15625 25.4249 5.08398 29.2877C9.26172 46.7058 20.0371 58.3557 37.0527 64.4379C37.3203 64.5342 37.6836 64.5323 37.9531 64.4398C50.1445 60.2996 59.3691 52.6666 65.4648 41.4482C68.5801 35.7147 70.5078 29.621 70.6465 23.0456Z" fill="#150B33"/>
<path d="M23.5508 47.3819C23.7402 43.0587 25.5586 39.5774 28.4727 36.6105C30.627 34.4161 33.166 32.8633 36.3047 32.4395C37.8086 32.2352 39.2695 32.4298 40.7051 32.8903C46.5625 34.7706 51.4805 41.4751 51.4063 47.5033C51.4004 48.0543 51.3398 48.613 51.2266 49.1505C50.6406 51.946 48.3809 53.3273 45.2949 52.6511C43.6836 52.2985 42.0977 51.7841 40.5508 51.21C38.457 50.4317 36.4492 50.4933 34.3496 51.2331C32.5469 51.8689 30.6855 52.4372 28.8027 52.7378C26.168 53.1578 24.1953 51.5876 23.7363 48.9887C23.6367 48.4223 23.6016 47.8443 23.5488 47.38L23.5508 47.3819ZM46.9512 48.7093C46.9512 47.7229 47.0645 46.9735 46.9316 46.2664C46.1934 42.2958 43.9238 39.3867 40.3828 37.4466C38.5586 36.4486 36.6406 36.4101 34.7734 37.3734C31.3457 39.1439 29.1484 41.9124 28.1738 45.5979C27.9258 46.5381 27.8027 47.5283 28.1836 48.5109C28.4023 48.4839 28.5781 48.4858 28.7363 48.4377C30.25 47.9849 31.7676 47.5437 33.2734 47.0621C35.1934 46.4475 37.1309 45.9582 39.1562 46.3994C40.2949 46.6479 41.4141 46.9927 42.5312 47.328C43.9238 47.7441 45.3066 48.1949 46.9512 48.7112V48.7093Z" fill="#150B33"/>
<path d="M21.9297 35.5337C17.1855 35.526 13.4258 30.987 14.3711 26.4075C15.0508 23.117 18.2519 20.9457 21.7539 21.3985C26.0332 21.9495 29.1367 26.0473 28.4355 30.2183C27.9121 33.3316 25.2109 35.5395 21.9277 35.5337H21.9297ZM20.7929 25.6928C19.5195 25.7005 18.6386 26.5501 18.6054 27.8043C18.5586 29.4804 20.1328 31.1353 21.834 31.1989C23.2304 31.2509 24.2051 30.305 24.1699 28.9333C24.1269 27.2302 22.5136 25.6831 20.7949 25.6928H20.7929Z" fill="#150B33"/>
<path d="M54.166 21.3598C58.3613 21.356 61.3691 24.8643 60.6816 28.9601C60.0957 32.4549 57.3125 35.0866 53.7578 35.5047C49.2246 36.0403 45.6797 32.087 46.5996 27.5249C47.3027 24.0474 50.5957 21.3618 54.166 21.3579V21.3598ZM54.2168 25.6946C52.5254 25.6811 50.9179 27.1819 50.8339 28.8542C50.7617 30.2933 51.7773 31.2874 53.2324 31.1988C54.9062 31.0986 56.4355 29.463 56.3964 27.8138C56.3672 26.5558 55.4902 25.7042 54.2168 25.6946Z" fill="#150B33"/>
<path d="M44.4551 21.2366C44.377 24.9048 41.9238 27.943 38.4434 28.5094C36.1465 28.8832 34.209 28.0856 32.6504 26.4384C29.918 23.5543 29.9258 18.8612 32.6738 15.9983C34.4121 14.1873 36.5664 13.4379 39.0488 14.0679C41.7129 14.7441 43.3106 16.5628 44.0742 19.1136C44.2793 19.7975 44.3301 20.5257 44.4531 21.2347L44.4551 21.2366ZM39.9903 21.2039C39.9805 19.5413 38.8418 18.183 37.4727 18.2004C36.1309 18.2177 35.0274 19.5567 35.0117 21.1865C34.9961 22.8858 36.1367 24.2825 37.5274 24.2633C38.8887 24.2459 39.9981 22.8646 39.9883 21.2039H39.9903Z" fill="#150B33"/>
</g>
<defs>
<clipPath id="clip0_184_2063">
<rect width="75" height="69" fill="white"/>
</clipPath>
</defs>
</svg>
