<svg width="39" height="38" viewBox="0 0 39 38" fill="none" xmlns="http://www.w3.org/2000/svg">
<circle cx="19.5" cy="19" r="17.75" fill="#FC8864" stroke="#150B33" stroke-width="2.5"/>
<path d="M26.7 22.536V25.3649C26.7 25.7849 26.3753 26.1334 25.9564 26.163C25.6065 26.1877 25.3211 26.2 25.1 26.2C18.0308 26.2 12.3 20.4693 12.3 13.4C12.3 13.179 12.3124 12.8935 12.3371 12.5436C12.3667 12.1248 12.7152 11.8 13.1351 11.8H15.9641C16.1695 11.8 16.3415 11.9556 16.3621 12.1599C16.3806 12.3433 16.3978 12.4906 16.4137 12.6017C16.5755 13.7318 16.9061 14.8075 17.379 15.8025C17.4549 15.9622 17.4054 16.1533 17.2615 16.2561L15.5349 17.4895C16.5861 19.9449 18.5552 21.914 21.0106 22.9652L22.2417 21.2416C22.3458 21.096 22.5392 21.0459 22.7008 21.1226C23.6957 21.5952 24.7713 21.9253 25.9013 22.0868C26.0117 22.1026 26.158 22.1196 26.3402 22.138C26.5445 22.1587 26.7 22.3307 26.7 22.536Z" fill="#150B33"/>
</svg>
