<svg width="38" height="38" viewBox="0 0 38 38" fill="none" xmlns="http://www.w3.org/2000/svg">
<circle cx="19" cy="19" r="17.75" fill="#FFD15C" stroke="#150B33" stroke-width="2.5"/>
<path d="M26.2 22.5358V25.3647C26.2 25.7847 25.8753 26.1332 25.4564 26.1628C25.1065 26.1875 24.8211 26.1998 24.6 26.1998C17.5308 26.1998 11.8 20.4691 11.8 13.3998C11.8 13.1788 11.8124 12.8933 11.8371 12.5434C11.8667 12.1245 12.2152 11.7998 12.6351 11.7998H15.4641C15.6695 11.7998 15.8415 11.9553 15.8621 12.1596C15.8806 12.3431 15.8978 12.4903 15.9137 12.6014C16.0755 13.7316 16.4061 14.8073 16.879 15.8022C16.9549 15.9619 16.9054 16.1531 16.7615 16.2559L15.0349 17.4892C16.0861 19.9447 18.0552 21.9138 20.5106 22.965L21.7417 21.2413C21.8458 21.0957 22.0392 21.0456 22.2008 21.1224C23.1957 21.5949 24.2713 21.9251 25.4013 22.0865C25.5117 22.1024 25.658 22.1194 25.8402 22.1378C26.0445 22.1584 26.2 22.3304 26.2 22.5358Z" fill="#150B33"/>
</svg>
