<svg width="74" height="79" viewBox="0 0 74 79" fill="none" xmlns="http://www.w3.org/2000/svg">
<path fill-rule="evenodd" clip-rule="evenodd" d="M27.9535 11.8505C32.0912 20.3981 36.6076 37.2831 60.8038 30.2829C47.8608 38.9594 47.7018 52.256 54.0164 66.1852C48.6843 55.9423 44.3484 43.2413 19.9562 50.8889C41.0208 38.6566 32.0414 20.7134 27.9535 11.8505Z" stroke="#FC8864" stroke-width="5" stroke-miterlimit="1.5" stroke-linecap="round" stroke-linejoin="round"/>
<path d="M3 20.7573C8.62175 23.2061 13.8156 26.6832 19.4888 28.9962" stroke="#FC8864" stroke-width="5" stroke-miterlimit="1.5" stroke-linecap="round" stroke-linejoin="round"/>
<path d="M45.8735 20.1488C47.5103 16.6202 48.8514 12.8532 49.7295 9.05994" stroke="#FC8864" stroke-width="5" stroke-miterlimit="1.5" stroke-linecap="round" stroke-linejoin="round"/>
<path d="M35.7222 60.4632C33.7013 65.5801 32.1232 70.9547 30.6131 76.245" stroke="#FC8864" stroke-width="5" stroke-miterlimit="1.5" stroke-linecap="round" stroke-linejoin="round"/>
<path d="M62.0522 57.3467C62.7406 57.7635 63.4852 58.0871 64.1973 58.4623" stroke="#FC8864" stroke-width="5" stroke-miterlimit="1.5" stroke-linecap="round" stroke-linejoin="round"/>
</svg>
